<svg width="96" height="96" xmlns="http://www.w3.org/2000/svg" xmlns:xlink="http://www.w3.org/1999/xlink" xml:space="preserve" overflow="hidden"><g transform="translate(-592 -312)"><path d="M608.635 398.809C616.185 398.809 628.965 391.139 631.265 384.229 633.565 377.319 632.535 363.619 635.095 359.689 636.176 357.905 637.958 356.66 640.005 356.259 642.051 356.66 643.834 357.905 644.915 359.689 647.475 363.619 646.445 377.329 648.745 384.229 651.045 391.129 663.825 398.809 671.375 398.809 672.375 398.809 673.505 397.429 673.715 397.139 677.877 389.748 680.044 381.401 680.005 372.919 680.005 353.809 669.435 337.509 654.555 330.999 652.055 329.999 649.815 329.699 648.935 331.459 647.785 333.759 648.155 341.609 647.355 343.029 647.031 343.818 646.19 344.264 645.355 344.089 644.005 343.999 644.005 340.999 644.005 340.999L644.005 320.999 642.005 320.999 642.005 322.999 638.005 322.999 638.005 320.999 636.005 320.999 636.005 340.999C636.005 340.999 636.005 343.999 634.665 344.129 633.83 344.304 632.989 343.858 632.665 343.069 631.865 341.649 632.235 333.799 631.085 331.499 630.195 329.739 628.005 329.999 625.455 330.999 610.575 337.509 600.005 353.809 600.005 372.919 599.965 381.401 602.133 389.748 606.295 397.139 606.505 397.429 607.605 398.809 608.635 398.809ZM663.505 385.999C662.676 385.999 662.005 385.328 662.005 384.499 662.005 383.671 662.676 382.999 663.505 382.999 664.333 382.999 665.005 383.671 665.005 384.499 665.005 385.328 664.333 385.999 663.505 385.999ZM659.909 360.488 661.98 362.56C662.446 362.258 662.963 362.043 663.505 361.924L663.505 358.999 665.505 358.999 665.505 361.924C666.047 362.043 666.563 362.258 667.03 362.56L669.101 360.488 670.515 361.902 668.444 363.974C668.745 364.44 668.961 364.957 669.08 365.499L672.005 365.499 672.005 367.499 669.08 367.499C668.961 368.041 668.745 368.558 668.444 369.024L670.515 371.095 669.101 372.509 667.03 370.438C666.563 370.739 666.047 370.955 665.505 371.074L665.505 373.999 663.505 373.999 663.505 371.074C662.963 370.955 662.446 370.739 661.98 370.438L659.909 372.509 658.495 371.095 660.566 369.024C660.265 368.558 660.049 368.041 659.93 367.499L657.005 367.499 657.005 365.499 659.93 365.499C660.049 364.957 660.264 364.44 660.566 363.974L658.495 361.902ZM656.505 349.999C657.333 349.999 658.005 350.67 658.005 351.499 658.005 352.327 657.333 352.999 656.505 352.999 655.676 352.999 655.005 352.327 655.005 351.499 655.005 350.67 655.676 349.999 656.505 349.999ZM638.005 324.999 642.005 324.999 642.005 326.999 638.005 326.999ZM638.005 328.999 642.005 328.999 642.005 330.999 638.005 330.999ZM638.005 332.999 642.005 332.999 642.005 334.999 638.005 334.999ZM638.005 336.999 642.005 336.999 642.005 338.999 638.005 338.999ZM619.096 350.124 621.11 350.124C621.173 349.909 621.258 349.702 621.366 349.507L619.941 348.082 621.179 346.845 622.603 348.269C622.799 348.162 623.006 348.076 623.221 348.013L623.221 345.999 624.971 345.999 624.971 348.013C625.185 348.076 625.392 348.162 625.588 348.269L627.012 346.845 628.249 348.082 626.825 349.506C626.932 349.702 627.018 349.909 627.081 350.124L629.096 350.124 629.096 351.874 627.081 351.874C627.018 352.088 626.932 352.295 626.825 352.491L628.249 353.915 627.012 355.153 625.588 353.729C625.392 353.836 625.185 353.922 624.971 353.984L624.971 355.999 623.221 355.999 623.221 353.984C623.006 353.922 622.799 353.836 622.603 353.728L621.179 355.153 619.941 353.915 621.366 352.491C621.258 352.295 621.173 352.088 621.11 351.874L619.096 351.874ZM612.596 358.999C613.425 358.999 614.096 359.671 614.096 360.499 614.096 361.327 613.425 361.999 612.596 361.999 611.768 361.999 611.096 361.327 611.096 360.499 611.096 359.671 611.768 358.999 612.596 358.999ZM609.095 375 611.716 375C611.829 374.508 612.025 374.039 612.295 373.613L610.438 371.756 611.852 370.342 613.709 372.199C614.135 371.929 614.604 371.733 615.095 371.62L615.095 368.999 617.095 368.999 617.095 371.62C617.587 371.733 618.055 371.929 618.482 372.199L620.338 370.342 621.752 371.756 619.896 373.613C620.166 374.039 620.361 374.508 620.475 375L623.096 375 623.096 377 620.475 377C620.361 377.491 620.166 377.96 619.896 378.385L621.752 380.242 620.338 381.656 618.482 379.799C618.055 380.07 617.587 380.265 617.095 380.379L617.095 383 615.095 383 615.095 380.379C614.604 380.265 614.135 380.07 613.709 379.799L611.852 381.656 610.438 380.242 612.295 378.385C612.025 377.959 611.829 377.491 611.716 377L609.095 377Z"/></g></svg>