<svg width="96" height="96" xmlns="http://www.w3.org/2000/svg" xmlns:xlink="http://www.w3.org/1999/xlink" xml:space="preserve" overflow="hidden"><g transform="translate(-592 -312)"><path d="M621.3 330.2 621.3 340.4C621.3 341.5 622.2 342.4 623.3 342.4 624.4 342.4 625.3 341.5 625.3 340.4L625.3 330.2C626.9 329.8 628.4 329 629.6 327.8 630.4 327 630.4 325.8 629.6 325 628.8 324.2 627.6 324.2 626.8 325L626.8 325C626.4 325.4 625.9 325.8 625.3 326L625.3 325C625.3 323.9 624.4 323 623.3 323 622.2 323 621.3 323.9 621.3 325L621.3 326C620.7 325.8 620.2 325.4 619.8 325 619 324.2 617.8 324.2 617 325 616.2 325.8 616.2 327 617 327.8 618.2 329 619.7 329.9 621.3 330.2Z"/><path d="M633.7 339C634.7 339.5 635.9 339 636.4 338L640.7 328.7C641.3 328.8 641.9 328.9 642.5 328.9 643.5 328.9 644.6 328.7 645.6 328.4 646.6 328 647.2 326.9 646.8 325.8 646.4 324.8 645.3 324.3 644.3 324.6 643.7 324.8 643.1 324.9 642.5 324.9L642.9 324C643.4 323 642.9 321.8 641.9 321.4 640.9 321 639.7 321.4 639.3 322.4L638.9 323.3C638.5 322.8 638.2 322.3 638 321.8 637.6 320.8 636.5 320.2 635.4 320.6 634.4 321 633.8 322.1 634.2 323.2L634.2 323.2C634.8 324.8 635.8 326.2 637.1 327.2L632.8 336.5C632.3 337.3 632.7 338.5 633.7 339Z"/><path d="M663.1 329.2C662.5 329.1 662 328.8 661.5 328.5L662.4 328C663.3 327.4 663.6 326.2 663.1 325.2 662.5 324.3 661.3 324 660.3 324.5L659.4 325C659.3 324.4 659.3 323.8 659.5 323.2 659.7 322.1 659.1 321.1 658 320.8 656.9 320.6 655.9 321.2 655.6 322.3 655.2 323.9 655.3 325.6 655.8 327.2L647.7 332.2C646.7 332.7 646.4 334 646.9 334.9 647.4 335.9 648.7 336.2 649.6 335.7 649.7 335.7 649.7 335.6 649.7 335.6L657.8 330.6C659 331.8 660.5 332.6 662.1 333 663.2 333.3 664.3 332.7 664.6 331.6 664.9 330.5 664.3 329.4 663.2 329.1 663.2 329.2 663.2 329.2 663.1 329.2Z"/><path d="M683.9 320.7C683.3 320.7 682.7 320.6 682.1 320.4L682.8 319.7C683.5 318.9 683.5 317.6 682.6 316.9 681.8 316.2 680.6 316.2 679.9 317L679.2 317.7C679 317.1 678.8 316.6 678.8 316 678.8 314.9 677.8 314 676.7 314.1 675.6 314.1 674.7 315.1 674.8 316.2 674.8 317.9 675.4 319.5 676.3 320.9L670.2 327.4C669.4 328.2 669.5 329.5 670.3 330.2 671.1 330.9 672.4 330.9 673.1 330.1L673.1 330.1 679.2 323.6C680.6 324.4 682.1 324.8 683.7 324.8 683.8 324.8 683.9 324.8 684 324.8 685.1 324.8 686 323.8 685.9 322.7 685.9 322.7 685.9 322.7 685.9 322.7 686 321.6 685 320.7 683.9 320.7Z"/><path d="M630.1 352.5C630.1 348.9 627.2 346 623.6 346 620 346 617.1 348.9 617.1 352.5 617.1 354.3 617.9 356.1 619.3 357.3 618.2 363.6 614.8 369.4 611.2 375.5 606.2 383.9 600.6 393.5 600.6 406L606.6 406C606.6 395.1 611.6 386.7 616.4 378.5 620 372.3 623.8 366 625.1 358.8 628.1 358.1 630.1 355.5 630.1 352.5Z"/><path d="M601.6 369.2C600.8 370 600.9 371.3 601.7 372 602.5 372.8 603.7 372.7 604.5 372L605.2 371.3C605.4 371.9 605.6 372.5 605.6 373.1 605.6 374.2 606.5 375.1 607.6 375.1L607.6 375.1C608.7 375.1 609.6 374.2 609.6 373.1 609.6 373.1 609.6 373.1 609.6 373.1 609.6 371.4 609.1 369.8 608.2 368.4L615.3 361.1C616.1 360.3 616 359 615.3 358.3 614.5 357.5 613.2 357.6 612.5 358.3L605.4 365.6C604 364.7 602.3 364.3 600.6 364.3 599.5 364.3 598.6 365.2 598.6 366.3 598.6 367.4 599.5 368.3 600.6 368.3 601.2 368.3 601.8 368.4 602.4 368.6L601.6 369.2Z"/><path d="M600.7 362.8C601.6 361.4 602.1 359.7 602.1 358.1L612.1 355.8C613.2 355.6 613.8 354.5 613.6 353.4 613.4 352.3 612.3 351.7 611.2 351.9L601.2 354.2C600.5 352.7 599.3 351.4 597.9 350.5 597 349.9 595.7 350.2 595.1 351.1 594.5 352 594.8 353.3 595.7 353.9L595.7 353.9C596.2 354.2 596.7 354.6 597 355.1L596 355.3C594.9 355.5 594.2 356.6 594.5 357.7 594.7 358.6 595.5 359.3 596.5 359.3 596.7 359.3 596.8 359.3 596.9 359.2L598 359C597.9 359.6 597.7 360.2 597.3 360.7 596.7 361.6 597 362.9 597.9 363.5 598.9 364 600.1 363.8 600.7 362.8 600.7 362.8 600.7 362.8 600.7 362.8L600.7 362.8Z"/><path d="M595.8 348.3C596.3 349.3 597.5 349.7 598.5 349.2 598.5 349.2 598.5 349.2 598.5 349.2 600 348.5 601.3 347.3 602.2 345.9L611.9 349.2C612.9 349.6 614.1 349 614.4 348 614.7 347 614.2 345.8 613.2 345.5L603.5 342.2C603.7 340.5 603.4 338.9 602.6 337.4 602.1 336.4 600.9 336 599.9 336.5 598.9 337 598.5 338.2 599 339.2 599.3 339.7 599.4 340.3 599.5 340.9L598.5 340.6C597.5 340.2 596.3 340.8 596 341.8 595.6 342.8 596.2 344 597.2 344.3L598.2 344.6C597.8 345 597.3 345.4 596.8 345.7 595.7 346.1 595.3 347.3 595.8 348.3Z"/><path d="M631.2 373 630.7 362.8C630.6 361.7 629.7 360.9 628.6 361 627.5 361.1 626.7 362 626.7 363L627.2 373.2C625.6 373.6 624.1 374.5 623 375.8 622.3 376.6 622.3 377.9 623.1 378.6 623.9 379.3 625.2 379.3 625.9 378.5 626.3 378.1 626.8 377.7 627.3 377.4L627.4 378.4C627.5 379.5 628.3 380.3 629.4 380.3L629.5 380.3C630.6 380.2 631.5 379.3 631.4 378.2L631.3 377.2C631.9 377.4 632.4 377.7 632.8 378.1 633.6 378.8 634.9 378.8 635.6 378 636.3 377.2 636.3 375.9 635.5 375.2 634.4 374.1 632.8 373.3 631.2 373Z"/><path d="M646.8 364.1C645.1 364.1 643.5 364.5 642 365.4L634.9 358.1C634.1 357.3 632.9 357.3 632.1 358.1 631.3 358.9 631.3 360.1 632.1 360.9L632.1 360.9 639.2 368.2C638.3 369.6 637.8 371.2 637.8 372.9 637.8 374 638.7 374.9 639.8 374.9 639.8 374.9 639.8 374.9 639.8 374.9L639.8 374.9C640.9 374.9 641.8 374 641.8 372.9 641.8 372.3 641.9 371.7 642.2 371.1L642.9 371.8C643.7 372.6 644.9 372.6 645.7 371.8 646.5 371 646.5 369.8 645.7 369L645 368.3C645.6 368.1 646.2 368 646.8 368 647.9 368 648.8 367.1 648.8 366 648.7 365 647.9 364.1 646.8 364.1Z"/><path d="M651.1 353.9 650.1 353.7C650.4 353.2 650.9 352.8 651.4 352.4 652.3 351.8 652.6 350.5 651.9 349.6 651.3 348.7 650.1 348.4 649.1 349 647.7 349.9 646.6 351.2 645.9 352.8L635.9 350.8C634.8 350.6 633.8 351.3 633.5 352.4 633.2 353.5 634 354.5 635.1 354.8L645.1 356.8C645.1 358.5 645.7 360.1 646.6 361.5 647.2 362.4 648.4 362.7 649.4 362.1 650.3 361.5 650.6 360.3 650 359.3 650 359.3 650 359.3 650 359.2 649.7 358.7 649.4 358.1 649.3 357.5L650.3 357.7C650.4 357.7 650.6 357.7 650.7 357.7 651.8 357.7 652.7 356.8 652.7 355.7 652.7 354.9 652.1 354.1 651.1 353.9Z"/><path d="M603.9 335.5C604.5 335.6 605 335.7 605.6 335.7 606.7 335.7 607.8 335.5 608.8 335.1L614.6 343.6C615.2 344.5 616.5 344.8 617.4 344.1 618.3 343.4 618.6 342.2 617.9 341.3L612.2 332.8C613.3 331.6 614.1 330.1 614.4 328.4 614.6 327.3 613.9 326.3 612.8 326.1 611.7 325.9 610.7 326.6 610.5 327.7 610.4 328.3 610.2 328.9 609.8 329.4L609.2 328.5C608.6 327.6 607.3 327.3 606.4 328 605.5 328.6 605.2 329.9 605.9 330.8L606.5 331.7C605.9 331.8 605.3 331.8 604.7 331.7 603.6 331.5 602.6 332.2 602.4 333.3 602.1 334.2 602.8 335.2 603.9 335.5L603.9 335.5Z"/></g></svg>